<svg width="311" height="32" viewBox="0 0 311 32" fill="none" xmlns="http://www.w3.org/2000/svg">
<g clip-path="url(#clip0)">
<path d="M21.0891 16.8696C21.1482 16.5797 21.1777 16.2899 21.1777 16C21.1777 15.2464 21.03 14.5507 20.7642 13.913L19.7304 13.971C19.3169 14 18.9329 14.1159 18.5785 14.2899C18.7557 14.5797 18.8739 14.8696 18.9625 15.2174C19.7895 15.5652 20.5279 16.1449 21.0891 16.8696Z" fill="url(#paint0_linear)"/>
<path d="M10.6627 15.1304C10.6036 15.4203 10.5741 15.7101 10.5741 16C10.5741 16.7536 10.7218 17.4493 10.9876 18.087L12.0214 18.029C12.4349 18 12.8189 17.8841 13.1733 17.7101C12.9961 17.4203 12.878 17.1304 12.7893 16.7826C11.9623 16.4348 11.2239 15.8551 10.6627 15.1304Z" fill="url(#paint1_linear)"/>
<path d="M16.511 10.7246L16.0679 11.6522C15.8907 12.029 15.8021 12.4058 15.7725 12.8116C15.8316 12.8116 15.8611 12.8116 15.9202 12.8116C16.2156 12.8116 16.511 12.8696 16.7768 12.9275C17.5152 12.3768 18.3422 12.029 19.2578 11.8841C18.4604 11.2754 17.5152 10.8696 16.511 10.7246Z" fill="url(#paint2_linear)"/>
<path d="M11.6669 12.8116L12.2281 13.6812C12.4644 14.029 12.7598 14.3188 13.0847 14.5217C13.2324 14.2319 13.4391 13.942 13.6754 13.7101C13.5573 12.7826 13.6754 11.8841 14.0299 11.0145C13.0847 11.3913 12.2577 12.029 11.6669 12.8116Z" fill="url(#paint3_linear)"/>
<path d="M20.0849 19.1884L19.5237 18.3188C19.2874 17.971 18.992 17.6812 18.6671 17.4783C18.5194 17.7681 18.3127 18.058 18.0764 18.2899C18.1945 19.2174 18.0764 20.1159 17.7219 20.9855C18.6967 20.6087 19.4941 20 20.0849 19.1884Z" fill="url(#paint4_linear)"/>
<path d="M15.8907 17.0725C16.4779 17.0725 16.954 16.5923 16.954 16C16.954 15.4077 16.4779 14.9275 15.8907 14.9275C15.3034 14.9275 14.8274 15.4077 14.8274 16C14.8274 16.5923 15.3034 17.0725 15.8907 17.0725Z" fill="url(#paint5_linear)"/>
<path d="M15.7135 20.3478C15.8907 19.971 15.9793 19.5942 16.0088 19.1884C15.9498 19.1884 15.9202 19.1884 15.8611 19.1884C15.5658 19.1884 15.2704 19.1304 15.0046 19.0725C14.2662 19.6232 13.4391 19.971 12.5235 20.1159C13.2915 20.7536 14.2071 21.1594 15.2409 21.2754L15.7135 20.3478Z" fill="url(#paint6_linear)"/>
<path d="M15.8907 0.0322075C7.11831 0.0322075 0 7.19163 0 16.0032C0 24.8148 7.11831 31.9742 15.8907 31.9742C24.6335 31.9742 31.7814 24.8148 31.7814 16.0032C31.7814 14.1771 31.486 12.38 30.8657 10.6699H21.0596C22.4478 12.0322 23.3044 13.9163 23.3044 16.0032C23.3044 20.1192 19.9667 23.4525 15.8907 23.4525C11.8146 23.4525 8.477 20.1192 8.477 16.0032C8.477 11.8873 11.8146 8.55395 15.8907 8.55395H37.9545L40.9672 0.0322075H15.8907Z" fill="url(#paint7_linear)"/>
<path d="M63.7399 0L60.6976 8.55072H307.062L310.4 0H63.7399Z" fill="#E2001C"/>
<path d="M52.4569 31.7971L53.9337 27.8841H60.3727C61.6133 27.8841 62.4994 27.2464 62.9719 26.029L63.415 24.8406H59.8411C56.976 24.8406 55.2924 23.1594 56.0604 21.1015L59.7229 11.3623H65.6302L62.7356 19.0725C62.2926 20.2319 62.7356 20.9275 63.8876 20.9275H64.8918L68.4953 11.3623H74.4026L68.9383 25.8841C67.6092 29.4203 64.0648 31.7971 59.0731 31.7971H52.4569Z" fill="black"/>
<path d="M76.4702 16.6087C77.7402 13.2464 81.5209 11.0145 85.8628 11.0145C90.3819 11.0145 92.5971 13.2464 91.3271 16.6087L90.3228 19.2464C89.0527 22.6087 85.2425 24.8406 80.7825 24.8406H79.3057L76.736 31.6522H70.8287L76.4702 16.6087ZM81.8458 20.9275C83.175 20.9275 83.9134 20.4638 84.3269 19.3913L85.5084 16.2609C85.8037 15.4783 85.4197 15.0145 84.445 15.0145C83.5589 15.0145 82.8205 15.4783 82.5252 16.2609L80.7825 20.9275H81.8458Z" fill="black"/>
<path d="M94.3398 16.9855C95.6394 13.5362 99.7745 11.2174 104.678 11.2174H110.112L108.635 15.1304H103.201C101.783 15.1304 100.69 15.8261 100.247 16.9855L99.4496 19.0725H101.104C106.125 19.0725 107.247 21.7391 106.066 24.9275L105.682 25.971C104.235 29.7971 101.37 31.7971 96.3187 31.7971H88.7574L94.3398 16.9855ZM97.323 27.8841C98.4749 27.8841 99.2724 27.1594 99.745 25.971L100.129 24.9565C100.572 23.7391 100.336 22.9855 99.1838 22.9855H98.0319L96.2006 27.8841H97.323Z" fill="black"/>
<path d="M108.37 26.4058L112.062 16.6087C113.332 13.2464 117.231 11.0145 121.72 11.0145C126.239 11.0145 128.455 13.2464 127.184 16.6087L123.492 26.4058C122.222 29.7681 118.323 32 113.834 32C109.315 32 107.1 29.7681 108.37 26.4058ZM117.408 26.7536L121.366 16.2609C121.661 15.4493 121.248 14.9855 120.243 14.9855C119.239 14.9855 118.471 15.4493 118.146 16.2609L114.188 26.7536C113.893 27.5652 114.306 28.029 115.311 28.029C116.345 28.029 117.112 27.5652 117.408 26.7536Z" fill="black"/>
<path d="M145.497 11.3623L144.02 15.2754H139.708L133.535 31.6522H127.657L133.83 15.2754H129.518L130.995 11.3623H145.497Z" fill="black"/>
<path d="M141.746 26.2029L145.29 16.8116C146.56 13.4493 150.371 11.2174 154.831 11.2174H159.911L158.434 15.1304H154.181C152.734 15.1304 151.641 15.7971 151.198 16.9565L150.223 19.5652H155.776L154.358 23.3333H148.805L147.771 26.058C147.328 27.2174 147.919 27.8841 149.366 27.8841H153.62L152.143 31.7971H147.092C142.632 31.7971 140.505 29.5652 141.746 26.2029Z" fill="black"/>
<path d="M175.122 17.7971C174.591 19.2174 173.439 20.4638 171.814 21.3913C172.759 22.3188 172.966 23.5652 172.435 24.9855L169.924 31.6522H164.017L166.645 24.6377C166.941 23.8551 166.586 23.3913 165.7 23.3913C164.814 23.3913 164.105 23.8551 163.81 24.6377L161.181 31.6522H155.274L157.784 24.9855C158.316 23.5652 159.468 22.3188 161.092 21.3913C160.147 20.4638 159.941 19.2174 160.472 17.7971L162.894 11.3623H168.802L166.261 18.1449C165.966 18.9275 166.32 19.3913 167.207 19.3913C168.093 19.3913 168.802 18.9275 169.097 18.1449L171.637 11.3623H177.544L175.122 17.7971Z" fill="black"/>
<path d="M190.186 11.3623H196.064L188.443 31.6522H182.536L185.637 23.3913H182.89L179.789 31.6522H173.911L181.532 11.3623H187.41L184.367 19.4783H187.114L190.186 11.3623Z" fill="black"/>
<path d="M194.41 26.4058L198.102 16.6087C199.372 13.2464 203.271 11.0145 207.76 11.0145C212.279 11.0145 214.495 13.2464 213.225 16.6087L209.533 26.4058C208.262 29.7681 204.364 32 199.874 32C195.384 32 193.14 29.7681 194.41 26.4058ZM203.448 26.7536L207.406 16.2609C207.701 15.4493 207.288 14.9855 206.283 14.9855C205.279 14.9855 204.511 15.4493 204.186 16.2609L200.228 26.7536C199.933 27.5652 200.347 28.029 201.351 28.029C202.385 28.029 203.153 27.5652 203.448 26.7536Z" fill="black"/>
<path d="M208.794 31.2174L209.828 28.4348C209.946 28.0869 210.3 27.913 210.832 27.8261C212.368 27.6812 213.343 26.9275 213.904 25.4203L217.153 16.7536C218.393 13.4203 222.263 11.2174 226.811 11.2174H233.841L226.132 31.6812H220.254L226.486 15.1304H225.512C224.389 15.1304 223.474 15.7101 223.09 16.7246L219.604 25.971C218.305 29.3913 214.524 31.5652 209.385 31.7681C208.853 31.7971 208.646 31.5942 208.794 31.2174Z" fill="black"/>
<path d="M232.157 26.4058L235.85 16.6087C237.12 13.2464 241.018 11.0145 245.508 11.0145C250.027 11.0145 252.242 13.2464 250.972 16.6087L247.28 26.4058C246.01 29.7681 242.111 32 237.622 32C233.103 32 230.887 29.7681 232.157 26.4058ZM241.196 26.7536L245.154 16.2609C245.449 15.4493 245.035 14.9855 244.031 14.9855C243.027 14.9855 242.259 15.4493 241.934 16.2609L237.976 26.7536C237.681 27.5652 238.094 28.029 239.099 28.029C240.103 28.029 240.9 27.5652 241.196 26.7536Z" fill="black"/>
<path d="M254.517 17.4203C255.964 13.5362 259.892 11.2464 265.091 11.2464H269.876L268.399 15.1594H263.762C262.078 15.1594 261.074 15.7971 260.572 17.1014L255.107 31.6522H249.141L254.517 17.4203Z" fill="black"/>
<path d="M281.484 11.3623H287.361L279.741 31.6522H272.711C267.365 31.6522 266.006 29.1304 267.276 25.7681L272.711 11.3623H278.678L273.213 25.913C272.8 27.0145 273.213 27.7681 274.365 27.7681H275.369L281.484 11.3623Z" fill="black"/>
<path d="M300.151 11.3623H306.028L298.408 31.6522H291.378C286.032 31.6522 284.673 29.1304 285.944 25.7681L291.378 11.3623H297.345L291.821 25.942C291.408 27.0435 291.821 27.7971 292.973 27.7971H293.977L300.151 11.3623Z" fill="black"/>
<path d="M61.5542 0H43.1529L40.1106 8.55072H46.8154L37.8954 31.8261H44.6593L53.5793 8.55072H58.5414L61.5542 0Z" fill="black"/>
</g>
<defs>
<linearGradient id="paint0_linear" x1="-0.46461" y1="15.606" x2="30.506" y2="16.0505" gradientUnits="userSpaceOnUse">
<stop stop-color="#220504"/>
<stop offset="0.1133" stop-color="#3D0407"/>
<stop offset="0.4289" stop-color="#83020F"/>
<stop offset="0.6924" stop-color="#B60115"/>
<stop offset="0.8903" stop-color="#D60019"/>
<stop offset="1" stop-color="#E2001A"/>
</linearGradient>
<linearGradient id="paint1_linear" x1="-0.46461" y1="15.606" x2="30.506" y2="16.0505" gradientUnits="userSpaceOnUse">
<stop stop-color="#220504"/>
<stop offset="0.1133" stop-color="#3D0407"/>
<stop offset="0.4289" stop-color="#83020F"/>
<stop offset="0.6924" stop-color="#B60115"/>
<stop offset="0.8903" stop-color="#D60019"/>
<stop offset="1" stop-color="#E2001A"/>
</linearGradient>
<linearGradient id="paint2_linear" x1="-0.46461" y1="15.606" x2="30.506" y2="16.0505" gradientUnits="userSpaceOnUse">
<stop stop-color="#220504"/>
<stop offset="0.1133" stop-color="#3D0407"/>
<stop offset="0.4289" stop-color="#83020F"/>
<stop offset="0.6924" stop-color="#B60115"/>
<stop offset="0.8903" stop-color="#D60019"/>
<stop offset="1" stop-color="#E2001A"/>
</linearGradient>
<linearGradient id="paint3_linear" x1="-0.46461" y1="15.606" x2="30.506" y2="16.0505" gradientUnits="userSpaceOnUse">
<stop stop-color="#220504"/>
<stop offset="0.1133" stop-color="#3D0407"/>
<stop offset="0.4289" stop-color="#83020F"/>
<stop offset="0.6924" stop-color="#B60115"/>
<stop offset="0.8903" stop-color="#D60019"/>
<stop offset="1" stop-color="#E2001A"/>
</linearGradient>
<linearGradient id="paint4_linear" x1="-0.46461" y1="15.606" x2="30.506" y2="16.0505" gradientUnits="userSpaceOnUse">
<stop stop-color="#220504"/>
<stop offset="0.1133" stop-color="#3D0407"/>
<stop offset="0.4289" stop-color="#83020F"/>
<stop offset="0.6924" stop-color="#B60115"/>
<stop offset="0.8903" stop-color="#D60019"/>
<stop offset="1" stop-color="#E2001A"/>
</linearGradient>
<linearGradient id="paint5_linear" x1="-0.46461" y1="15.606" x2="30.506" y2="16.0505" gradientUnits="userSpaceOnUse">
<stop stop-color="#220504"/>
<stop offset="0.1133" stop-color="#3D0407"/>
<stop offset="0.4289" stop-color="#83020F"/>
<stop offset="0.6924" stop-color="#B60115"/>
<stop offset="0.8903" stop-color="#D60019"/>
<stop offset="1" stop-color="#E2001A"/>
</linearGradient>
<linearGradient id="paint6_linear" x1="-0.46461" y1="15.606" x2="30.506" y2="16.0505" gradientUnits="userSpaceOnUse">
<stop stop-color="#220504"/>
<stop offset="0.1133" stop-color="#3D0407"/>
<stop offset="0.4289" stop-color="#83020F"/>
<stop offset="0.6924" stop-color="#B60115"/>
<stop offset="0.8903" stop-color="#D60019"/>
<stop offset="1" stop-color="#E2001A"/>
</linearGradient>
<linearGradient id="paint7_linear" x1="-0.46461" y1="15.606" x2="30.506" y2="16.0505" gradientUnits="userSpaceOnUse">
<stop stop-color="#220504"/>
<stop offset="0.1133" stop-color="#3D0407"/>
<stop offset="0.4289" stop-color="#83020F"/>
<stop offset="0.6924" stop-color="#B60115"/>
<stop offset="0.8903" stop-color="#D60019"/>
<stop offset="1" stop-color="#E2001A"/>
</linearGradient>
<clipPath id="clip0">
<rect width="310.4" height="32" fill="white"/>
</clipPath>
</defs>
</svg>
