<svg width="16" height="13" viewBox="0 0 16 13" fill="none" xmlns="http://www.w3.org/2000/svg">
<path d="M16 10.1332C16 10.484 15.9013 10.8092 15.7433 11.0953L10.6914 5.44296L15.6885 1.07095C15.8829 1.37944 16 1.74181 16 2.13339V10.1332ZM8.00002 6.46925L14.9533 0.385298C14.668 0.229094 14.3467 0.133301 14 0.133301H1.99999C1.65296 0.133301 1.33154 0.229094 1.04736 0.385298L8.00002 6.46925ZM9.93854 6.10118L8.32904 7.51035C8.2349 7.59236 8.11767 7.63331 8.00002 7.63331C7.88229 7.63331 7.76507 7.59236 7.67092 7.51035L6.06107 6.10111L0.945304 11.8257C1.25194 12.018 1.61131 12.1333 1.99995 12.1333H14C14.3886 12.1333 14.7482 12.018 15.0547 11.8257L9.93854 6.10118ZM0.311551 1.07092C0.117194 1.37941 0 1.74177 0 2.13339V10.1333C0 10.484 0.0982006 10.8092 0.256845 11.0953L5.30811 5.442L0.311551 1.07092Z" fill="white"/>
</svg>
