<svg width="14" height="14" viewBox="0 0 14 14" fill="none" xmlns="http://www.w3.org/2000/svg">
<path d="M13.9379 11.1614L13.8668 10.9482C13.7028 10.4587 13.1614 9.94744 12.6637 9.81073L10.8234 9.30763C10.3258 9.17365 9.61483 9.35411 9.24842 9.7205L8.58396 10.3849C6.16674 9.73144 4.26905 7.83388 3.61553 5.4141L4.27999 4.74968C4.64367 4.38603 4.82688 3.67513 4.69289 3.17477L4.19249 1.33464C4.05851 0.83701 3.54444 0.295634 3.05498 0.13158L2.84443 0.0632248C2.35497 -0.100829 1.65222 0.065959 1.28854 0.429611L0.293218 1.4276C0.115481 1.60533 0.000635678 2.11116 0.000635678 2.11116C-0.0321773 5.27465 1.20651 8.32058 3.44326 10.5572C5.67454 12.7883 8.70701 14.0269 11.8598 13.9996C11.8762 13.9996 12.3985 13.8875 12.5762 13.7097L13.5715 12.7145C13.9352 12.3508 14.0993 11.6509 13.9379 11.1614Z" fill="white"/>
</svg>
